# xmcd
#
# Track frame offsets: 
#        150
#        25743
#        49005
#        73228
#        92388
#        108318
#        130403
#        146835
#        162668
#        181555
#
# Disc length: 2687 seconds
#
# Revision: 0
# Processed by: cddbd v1.5.2PL0 Copyright (c) Steve Scherf et al.
# Submitted via: ExactAudioCopy v1.0b3
#
DISCID=860a7d0a
DTITLE=Son Tuyen - Con Mua Phun
DYEAR=1990
DGENRE=
TTITLE0=Hay den om anh (Lai gan hon anh)
TTITLE1=Con mua phun
TTITLE2=Lambada
TTITLE3=Tinh buon
TTITLE4=Nhung buoc chan am tham
TTITLE5=Xin mot ngay mai co nhau
TTITLE6=Tan tac
TTITLE7=Thuy chung
TTITLE8=Ben nhau dem nay
TTITLE9=Sa mac tinh yeu
EXTD=
EXTT0=
EXTT1=
EXTT2=
EXTT3=
EXTT4=
EXTT5=
EXTT6=
EXTT7=
EXTT8=
EXTT9=
PLAYORDER=
